<?xml version="1.0" encoding="utf-8"?>
<!-- Generator: Adobe Illustrator 24.0.1, SVG Export Plug-In . SVG Version: 6.00 Build 0)  -->
<svg version="1.1" id="katman_1" xmlns="http://www.w3.org/2000/svg" xmlns:xlink="http://www.w3.org/1999/xlink" x="0px" y="0px"
	 viewBox="0 0 129 75.3" style="enable-background:new 0 0 129 75.3;" xml:space="preserve">
<style type="text/css">
	.st0{fill:#121212;}
</style>
<g>
	<path class="st0" d="M5.8,6.5c-0.9,0.9-1.3,2-1.3,3.1c0,1.1,0.4,2.3,1.3,3.2l28,28l28,28c0.9,0.9,2,1.3,3.1,1.3s2.3-0.4,3.2-1.3
		l28-28l28-28c0.4-0.4,0.8-0.9,1-1.5c0.2-0.5,0.3-1.1,0.3-1.6c0-0.6-0.1-1.1-0.3-1.7c-0.2-0.5-0.6-1-1-1.5c-0.9-0.9-2-1.3-3.1-1.3
		c-1.1,0-2.3,0.4-3.2,1.3L91.4,32.9L65,59.4L38.6,32.9L12.2,6.4c-0.9-0.9-2-1.3-3.1-1.3C7.8,5.2,6.7,5.7,5.8,6.5z"/>
	<path class="st0" d="M129,9.7c0,1-0.2,2-0.6,3c-0.4,1-1,1.8-1.8,2.6l-56,56c-1.6,1.5-3.6,2.3-5.7,2.3c-2.1,0-4.1-0.8-5.6-2.3
		l-56-56C1.8,13.7,1,11.7,1,9.6C1,7.5,1.8,5.5,3.3,4l0.1-0.1C4.9,2.4,6.9,1.6,9,1.6s4.1,0.8,5.6,2.3L65,54.5l50.4-50.3
		c1.6-1.5,3.6-2.3,5.7-2.3c2.1,0,4.1,0.8,5.6,2.3c0.8,0.7,1.4,1.6,1.8,2.6C128.8,7.7,129,8.7,129,9.7z M8,9.7c0,0.2,0,0.5,0.3,0.8
		l56,56c0.2,0.2,0.5,0.3,0.7,0.3s0.5,0,0.8-0.3l56-56c0.1-0.1,0.2-0.2,0.3-0.4s0.1-0.4,0-0.6c0-0.1-0.1-0.2-0.1-0.2l-0.1-0.1
		c-0.2-0.2-0.5-0.3-0.7-0.3s-0.5,0-0.8,0.3L65,64.4L9.6,9C9.4,8.8,9.1,8.7,8.9,8.7S8.4,8.7,8.2,9C8,9.2,8,9.5,8,9.7z"/>
</g>
</svg>
