<?xml version="1.0" encoding="utf-8"?>
<!-- Generator: Adobe Illustrator 24.0.1, SVG Export Plug-In . SVG Version: 6.00 Build 0)  -->
<svg version="1.1" id="Layer_1" xmlns="http://www.w3.org/2000/svg" xmlns:xlink="http://www.w3.org/1999/xlink" x="0px" y="0px"
	 viewBox="0 0 1400 1050" style="enable-background:new 0 0 1400 1050;" xml:space="preserve">
<g>
	<path d="M1400,962.5c0,48.1-39.4,87.5-87.5,87.5H87.5C39.4,1050,0,1010.6,0,962.5l0,0C0,914.4,39.4,875,87.5,875h1225
		C1360.6,875,1400,914.4,1400,962.5L1400,962.5z"/>
	<path d="M1400,525c0,48.1-39.4,87.5-87.5,87.5H87.5C39.4,612.5,0,573.1,0,525l0,0c0-48.1,39.4-87.5,87.5-87.5h1225
		C1360.6,437.5,1400,476.9,1400,525L1400,525z"/>
	<path d="M1400,87.5c0,48.1-39.4,87.5-87.5,87.5H87.5C39.4,175,0,135.6,0,87.5l0,0C0,39.4,39.4,0,87.5,0h1225
		C1360.6,0,1400,39.4,1400,87.5L1400,87.5z"/>
</g>
</svg>
