<?xml version="1.0" encoding="utf-8"?>
<!-- Generator: Adobe Illustrator 24.0.1, SVG Export Plug-In . SVG Version: 6.00 Build 0)  -->
<svg version="1.1" id="Layer_1" xmlns="http://www.w3.org/2000/svg" xmlns:xlink="http://www.w3.org/1999/xlink" x="0px" y="0px"
	 viewBox="0 0 495.2 504.6" style="enable-background:new 0 0 495.2 504.6;" xml:space="preserve">
<path d="M180.1,127.7C162.3,63.3,152.3,27,150,18.7c-8.6-31.3-74.2-17.2-96.9-1.3c-96,67-42.6,202.3,9.8,280.7
	c95.7,127.3,189.5,195.2,281.3,203.8c72.9,12.9,159.1-19,150.4-105.3c-1.2-11.8-4-21-8.3-27.7c-7.2-10-49.1-23.9-125.9-41.7
	c-14.7-2.6-30,5.8-45.8,25.2c-2.4,3-4.8,5.6-7.3,7.9c-12.1,11.1-19.7,13.2-33.8,5.6c-43.2-23-118.8-117.2-136.2-146.3
	c-5.1-12-1.3-22.5,11.4-31.7C173.5,171.4,184,151.3,180.1,127.7"/>
</svg>
