<?xml version="1.0" encoding="utf-8"?>
<!-- Generator: Adobe Illustrator 22.0.0, SVG Export Plug-In . SVG Version: 6.00 Build 0)  -->
<svg version="1.1" xmlns="http://www.w3.org/2000/svg" xmlns:xlink="http://www.w3.org/1999/xlink" x="0px" y="0px"
	 viewBox="0 0 25.3 26.5" style="enable-background:new 0 0 25.3 26.5;" xml:space="preserve">
<style type="text/css">
	.st0{fill:#4F453C;}
	.st1{fill:#FFFFFF;}
	.st2{fill:#F2EEE8;}
	.st3{opacity:0.1;fill:#4F453C;}
	.st4{fill:none;stroke:#4F453C;stroke-width:2;}
</style>
<g id="Layer_2">
</g>
<g id="Layer_4">
</g>
<g id="Layer_3">
	<g>
		<g>
			<path class="st0" d="M6.8,8.3H1.6c-0.6,0-1-0.4-1-1V2.1c0-0.6,0.4-1,1-1h5.2c0.6,0,1,0.4,1,1v5.2C7.8,7.8,7.3,8.3,6.8,8.3
				L6.8,8.3z M2.6,6.3h3.2V3.1H2.6V6.3L2.6,6.3z"/>
		</g>
		<g>
			<path class="st0" d="M15.1,8.3H9.9c-0.6,0-1-0.4-1-1V2.1c0-0.6,0.4-1,1-1h5.2c0.6,0,1,0.4,1,1v5.2C16.1,7.8,15.6,8.3,15.1,8.3
				L15.1,8.3z M10.9,6.3h3.2V3.1h-3.2V6.3L10.9,6.3z"/>
		</g>
		<g>
			<path class="st0" d="M23.4,8.3h-5.2c-0.6,0-1-0.4-1-1V2.1c0-0.6,0.4-1,1-1h5.2c0.6,0,1,0.4,1,1v5.2C24.4,7.8,23.9,8.3,23.4,8.3
				L23.4,8.3z M19.2,6.3h3.2V3.1h-3.2V6.3L19.2,6.3z"/>
		</g>
		<g>
			<path class="st0" d="M6.8,16.6H1.6c-0.6,0-1-0.4-1-1v-5.2c0-0.6,0.4-1,1-1h5.2c0.6,0,1,0.4,1,1v5.2C7.8,16.2,7.3,16.6,6.8,16.6
				L6.8,16.6z M2.6,14.6h3.2v-3.2H2.6V14.6L2.6,14.6z"/>
		</g>
		<g>
			<path class="st0" d="M15.1,16.6H9.9c-0.6,0-1-0.4-1-1v-5.2c0-0.6,0.4-1,1-1h5.2c0.6,0,1,0.4,1,1v5.2
				C16.1,16.2,15.6,16.6,15.1,16.6L15.1,16.6z M10.9,14.6h3.2v-3.2h-3.2V14.6L10.9,14.6z"/>
		</g>
		<g>
			<path class="st0" d="M23.4,16.6h-5.2c-0.6,0-1-0.4-1-1v-5.2c0-0.6,0.4-1,1-1h5.2c0.6,0,1,0.4,1,1v5.2
				C24.4,16.2,23.9,16.6,23.4,16.6L23.4,16.6z M19.2,14.6h3.2v-3.2h-3.2V14.6L19.2,14.6z"/>
		</g>
		<g>
			<path class="st0" d="M6.8,25H1.6c-0.6,0-1-0.4-1-1v-5.2c0-0.6,0.4-1,1-1h5.2c0.6,0,1,0.4,1,1V24C7.8,24.6,7.3,25,6.8,25L6.8,25z
				 M2.6,23h3.2v-3.2H2.6V23L2.6,23z"/>
		</g>
		<g>
			<path class="st0" d="M15.1,25H9.9c-0.6,0-1-0.4-1-1v-5.2c0-0.6,0.4-1,1-1h5.2c0.6,0,1,0.4,1,1V24C16.1,24.6,15.6,25,15.1,25
				L15.1,25z M10.9,23h3.2v-3.2h-3.2V23L10.9,23z"/>
		</g>
		<g>
			<path class="st0" d="M23.4,25h-5.2c-0.6,0-1-0.4-1-1v-5.2c0-0.6,0.4-1,1-1h5.2c0.6,0,1,0.4,1,1V24C24.4,24.6,23.9,25,23.4,25
				L23.4,25z M19.2,23h3.2v-3.2h-3.2V23L19.2,23z"/>
		</g>
	</g>
</g>
</svg>
