<?xml version="1.0" encoding="utf-8"?>
<!-- Generator: Adobe Illustrator 22.0.0, SVG Export Plug-In . SVG Version: 6.00 Build 0)  -->
<svg version="1.1" xmlns="http://www.w3.org/2000/svg" xmlns:xlink="http://www.w3.org/1999/xlink" x="0px" y="0px"
	 viewBox="0 0 25 24.5" style="enable-background:new 0 0 25 24.5;" xml:space="preserve">
<style type="text/css">
	.st0{fill:#4F453C;}
	.st1{fill:#FFFFFF;}
	.st2{fill:#F2EEE8;}
	.st3{opacity:0.1;fill:#4F453C;}
	.st4{fill:none;stroke:#4F453C;stroke-width:2;}
</style>
<g id="Layer_2">
</g>
<g id="Layer_4">
</g>
<g id="Layer_3">
	<g>
		<g>
			<path class="st0" d="M23.4,4.2H9.9c-0.6,0-1-0.4-1-1c0-0.6,0.4-1,1-1h13.5c0.6,0,1,0.4,1,1C24.4,3.7,23.9,4.2,23.4,4.2L23.4,4.2z
				"/>
		</g>
		<g>
			<path class="st0" d="M5.2,5.8H1.8c-0.6,0-1-0.4-1-1V1.5c0-0.6,0.4-1,1-1h3.3c0.6,0,1,0.4,1,1v3.3C6.2,5.4,5.7,5.8,5.2,5.8
				L5.2,5.8z M2.8,3.8h1.3V2.5H2.8V3.8L2.8,3.8z"/>
		</g>
		<g>
			<path class="st0" d="M23.4,13.2H9.9c-0.6,0-1-0.4-1-1c0-0.6,0.4-1,1-1h13.5c0.6,0,1,0.4,1,1C24.4,12.7,23.9,13.2,23.4,13.2
				L23.4,13.2z"/>
		</g>
		<g>
			<path class="st0" d="M5.2,14.8H1.8c-0.6,0-1-0.4-1-1v-3.3c0-0.6,0.4-1,1-1h3.3c0.6,0,1,0.4,1,1v3.3C6.2,14.4,5.7,14.8,5.2,14.8
				L5.2,14.8z M2.8,12.8h1.3v-1.3H2.8V12.8L2.8,12.8z"/>
		</g>
		<g>
			<path class="st0" d="M23.4,22.2H9.9c-0.6,0-1-0.4-1-1c0-0.6,0.4-1,1-1h13.5c0.6,0,1,0.4,1,1C24.4,21.7,23.9,22.2,23.4,22.2
				L23.4,22.2z"/>
		</g>
		<g>
			<path class="st0" d="M5.2,23.8H1.8c-0.6,0-1-0.4-1-1v-3.3c0-0.6,0.4-1,1-1h3.3c0.6,0,1,0.4,1,1v3.3C6.2,23.4,5.7,23.8,5.2,23.8
				L5.2,23.8z M2.8,21.8h1.3v-1.3H2.8V21.8L2.8,21.8z"/>
		</g>
	</g>
</g>
</svg>
