<?xml version="1.0" encoding="utf-8"?>
<!-- Generator: Adobe Illustrator 22.0.0, SVG Export Plug-In . SVG Version: 6.00 Build 0)  -->
<svg version="1.1" id="Слой_1" xmlns="http://www.w3.org/2000/svg" xmlns:xlink="http://www.w3.org/1999/xlink" x="0px" y="0px"
	 viewBox="0 0 667.7 1062.4" style="enable-background:new 0 0 667.7 1062.4;" xml:space="preserve">
<style type="text/css">
	.st0{fill:url(#SVGID_1_);}
	.st1{fill:url(#SVGID_2_);}
	.st2{fill:url(#SVGID_3_);}
	.st3{fill:#FF4545;}
	.st4{fill:#FFFFFF;}
	.st5{fill:#BCBCBC;}
	.st6{fill:#AAAAAA;}
</style>
<path class="st6" d="M152.4,722.2c55.3,121,113.2,238.7,147.9,308.2c13.2,26.4,50.8,26.4,64,0c40.5-81,112.5-227.7,175.2-368.6
	c55.9-125.8,111-247,111-312.9c0-175.7-142.5-318.2-318.2-318.2S14.1,173.1,14.1,348.8c0,65.9,55.1,187.1,111,312.9
	C134,681.9,143.1,702.1,152.4,722.2z M332.3,188.1c88.2,0,159.8,71.5,159.8,159.8s-71.5,159.8-159.8,159.8s-159.8-71.5-159.8-159.8
	S244,188.1,332.3,188.1z"/>
</svg>
