<?xml version="1.0" encoding="utf-8"?>
<!-- Generator: Adobe Illustrator 24.0.1, SVG Export Plug-In . SVG Version: 6.00 Build 0)  -->
<svg version="1.1" id="Слой_1" xmlns="http://www.w3.org/2000/svg" xmlns:xlink="http://www.w3.org/1999/xlink" x="0px" y="0px"
	 viewBox="0 0 215.3 140.3" style="enable-background:new 0 0 215.3 140.3;" xml:space="preserve">
<path d="M199.8,126.9c-0.5,1.1-1.3,2-2.2,2.9c-0.8,0.8-1.7,1.3-2.7,1.7c-7,5.5-15.9,8.8-25.4,8.8H41.1c-9.6,0-18.3-3.3-25.3-8.8
	c-1-0.4-1.9-1-2.7-1.7c-1-0.8-1.7-1.8-2.3-2.9C4.2,119.6,0,109.9,0,99.2V41.1C0,18.5,18.5,0,41.1,0h128.4
	c22.6,0,41.1,18.4,41.1,41.1v58.1C210.5,109.9,206.5,119.6,199.8,126.9L199.8,126.9z M175.8,119.9l-36.2-40.4l-7.4,6.7
	c-7.5,6.7-17.2,10-26.8,10s-19.4-3.3-26.8-10l-7.5-6.7l-36.2,40.4c2,0.6,4.1,1,6.3,1h128.4C171.7,120.8,173.8,120.5,175.8,119.9
	L175.8,119.9z M20.8,106.5l35.8-40l-36-32.3c-0.7,2.2-1.1,4.4-1.1,6.8v58.1C19.5,101.8,19.9,104.2,20.8,106.5L20.8,106.5z
	 M34.3,20.6l57,51.1c3.8,3.4,8.8,5,14,5c5.1,0,10.2-1.7,13.9-5l57.2-51.1c-2.2-0.8-4.5-1.1-6.9-1.1H41.1
	C38.7,19.5,36.4,19.8,34.3,20.6L34.3,20.6z M190.1,34.3l-36,32.3l35.8,40c0.8-2.3,1.3-4.7,1.3-7.4V41.1
	C191.1,38.7,190.8,36.5,190.1,34.3L190.1,34.3z"/>
</svg>
