<svg xmlns="http://www.w3.org/2000/svg"><symbol id="arrow" viewBox="0 0 129 75.3"><style>.st0{fill:#121212}</style><path class="st0" d="M5.8 6.5c-.9.9-1.3 2-1.3 3.1s.4 2.3 1.3 3.2l28 28 28 28c.9.9 2 1.3 3.1 1.3s2.3-.4 3.2-1.3l28-28 28-28c.4-.4.8-.9 1-1.5.2-.5.3-1.1.3-1.6 0-.6-.1-1.1-.3-1.7-.2-.5-.6-1-1-1.5-.9-.9-2-1.3-3.1-1.3s-2.3.4-3.2 1.3L91.4 32.9 65 59.4 38.6 32.9 12.2 6.4c-.9-.9-2-1.3-3.1-1.3-1.3.1-2.4.6-3.3 1.4z"/><path class="st0" d="M129 9.7c0 1-.2 2-.6 3-.4 1-1 1.8-1.8 2.6l-56 56c-1.6 1.5-3.6 2.3-5.7 2.3s-4.1-.8-5.6-2.3l-56-56C1.8 13.7 1 11.7 1 9.6S1.8 5.5 3.3 4l.1-.1C4.9 2.4 6.9 1.6 9 1.6s4.1.8 5.6 2.3L65 54.5l50.4-50.3c1.6-1.5 3.6-2.3 5.7-2.3s4.1.8 5.6 2.3c.8.7 1.4 1.6 1.8 2.6.3.9.5 1.9.5 2.9zM8 9.7c0 .2 0 .5.3.8l56 56c.2.2.5.3.7.3s.5 0 .8-.3l56-56c.1-.1.2-.2.3-.4s.1-.4 0-.6c0-.1-.1-.2-.1-.2l-.1-.1c-.2-.2-.5-.3-.7-.3s-.5 0-.8.3L65 64.4 9.6 9c-.2-.2-.5-.3-.7-.3s-.5 0-.7.3c-.2.2-.2.5-.2.7z"/></symbol><symbol id="close" viewBox="0 0 437 361"><style>.st0{fill-rule:evenodd;clip-rule:evenodd;fill:#e62129}</style><path d="M87.9 74.4c-24-24 12.5-60.5 36.5-36.5l94.8 94.8L314 37.9c24-24 60.5 12.5 36.5 36.5l-94.8 94.8 94.8 94.8c24 24-12.5 60.5-36.5 36.5l-94.8-94.8-94.8 94.8c-24 24-60.5-12.5-36.5-36.5l94.8-94.8-94.8-94.8z"/></symbol><symbol id="layout-cards" viewBox="0 0 25.3 26.5"><style>.st0{fill:#4f453c}</style><path class="st0" d="M6.8 8.3H1.6c-.6 0-1-.4-1-1V2.1c0-.6.4-1 1-1h5.2c.6 0 1 .4 1 1v5.2c0 .5-.5 1-1 1zm-4.2-2h3.2V3.1H2.6v3.2zm12.5 2H9.9c-.6 0-1-.4-1-1V2.1c0-.6.4-1 1-1h5.2c.6 0 1 .4 1 1v5.2c0 .5-.5 1-1 1zm-4.2-2h3.2V3.1h-3.2v3.2zm12.5 2h-5.2c-.6 0-1-.4-1-1V2.1c0-.6.4-1 1-1h5.2c.6 0 1 .4 1 1v5.2c0 .5-.5 1-1 1zm-4.2-2h3.2V3.1h-3.2v3.2zM6.8 16.6H1.6c-.6 0-1-.4-1-1v-5.2c0-.6.4-1 1-1h5.2c.6 0 1 .4 1 1v5.2c0 .6-.5 1-1 1zm-4.2-2h3.2v-3.2H2.6v3.2zm12.5 2H9.9c-.6 0-1-.4-1-1v-5.2c0-.6.4-1 1-1h5.2c.6 0 1 .4 1 1v5.2c0 .6-.5 1-1 1zm-4.2-2h3.2v-3.2h-3.2v3.2zm12.5 2h-5.2c-.6 0-1-.4-1-1v-5.2c0-.6.4-1 1-1h5.2c.6 0 1 .4 1 1v5.2c0 .6-.5 1-1 1zm-4.2-2h3.2v-3.2h-3.2v3.2zM6.8 25H1.6c-.6 0-1-.4-1-1v-5.2c0-.6.4-1 1-1h5.2c.6 0 1 .4 1 1V24c0 .6-.5 1-1 1zm-4.2-2h3.2v-3.2H2.6V23zm12.5 2H9.9c-.6 0-1-.4-1-1v-5.2c0-.6.4-1 1-1h5.2c.6 0 1 .4 1 1V24c0 .6-.5 1-1 1zm-4.2-2h3.2v-3.2h-3.2V23zm12.5 2h-5.2c-.6 0-1-.4-1-1v-5.2c0-.6.4-1 1-1h5.2c.6 0 1 .4 1 1V24c0 .6-.5 1-1 1zm-4.2-2h3.2v-3.2h-3.2V23z" id="Layer_3"/></symbol><symbol id="layout-list" viewBox="0 0 25 24.5"><style>.st0{fill:#4f453c}</style><path class="st0" d="M23.4 4.2H9.9c-.6 0-1-.4-1-1s.4-1 1-1h13.5c.6 0 1 .4 1 1 0 .5-.5 1-1 1zM5.2 5.8H1.8c-.6 0-1-.4-1-1V1.5c0-.6.4-1 1-1h3.3c.6 0 1 .4 1 1v3.3c.1.6-.4 1-.9 1zm-2.4-2h1.3V2.5H2.8v1.3zm20.6 9.4H9.9c-.6 0-1-.4-1-1s.4-1 1-1h13.5c.6 0 1 .4 1 1 0 .5-.5 1-1 1zM5.2 14.8H1.8c-.6 0-1-.4-1-1v-3.3c0-.6.4-1 1-1h3.3c.6 0 1 .4 1 1v3.3c.1.6-.4 1-.9 1zm-2.4-2h1.3v-1.3H2.8v1.3zm20.6 9.4H9.9c-.6 0-1-.4-1-1s.4-1 1-1h13.5c.6 0 1 .4 1 1 0 .5-.5 1-1 1zM5.2 23.8H1.8c-.6 0-1-.4-1-1v-3.3c0-.6.4-1 1-1h3.3c.6 0 1 .4 1 1v3.3c.1.6-.4 1-.9 1zm-2.4-2h1.3v-1.3H2.8v1.3z" id="Layer_3"/></symbol><symbol id="layout-table" viewBox="0 0 23.3 24.5"><style>.st0{fill:#4f453c}</style><path class="st0" d="M21.9 2.7H1.2c-.6 0-1-.4-1-1s.4-1 1-1h20.7c.6 0 1 .4 1 1s-.5 1-1 1zm0 5.2H1.2c-.6 0-1-.4-1-1s.4-1 1-1h20.7c.6 0 1 .4 1 1s-.5 1-1 1zm0 5.3H1.2c-.6 0-1-.4-1-1s.4-1 1-1h20.7c.6 0 1 .4 1 1s-.5 1-1 1zm0 5.2H1.2c-.6 0-1-.4-1-1s.4-1 1-1h20.7c.6 0 1 .4 1 1s-.5 1-1 1zm0 5.3H1.2c-.6 0-1-.4-1-1s.4-1 1-1h20.7c.6 0 1 .4 1 1 0 .5-.5 1-1 1z" id="Layer_3"/></symbol><symbol id="location" viewBox="0 0 667.7 1062.4"><style>.st0{fill:url(#SVGID_1_)}</style><path d="M152.4 722.2c55.3 121 113.2 238.7 147.9 308.2 13.2 26.4 50.8 26.4 64 0 40.5-81 112.5-227.7 175.2-368.6 55.9-125.8 111-247 111-312.9 0-175.7-142.5-318.2-318.2-318.2S14.1 173.1 14.1 348.8c0 65.9 55.1 187.1 111 312.9 8.9 20.2 18 40.4 27.3 60.5zm179.9-534.1c88.2 0 159.8 71.5 159.8 159.8s-71.5 159.8-159.8 159.8-159.8-71.5-159.8-159.8S244 188.1 332.3 188.1z" fill="#aaa"/></symbol><symbol id="search" viewBox="0 0 325.5 315.2"><path d="M291.4 249.5l-73.2-73.2c9.6-16.3 14.3-34.5 14.3-52.6 0-27-10.4-53.8-30.4-73.9-19.7-19.7-45.9-30.5-73.7-30.5-27.8 0-54 10.8-73.7 30.5C35 69.5 24.2 95.7 24.2 123.5c0 27.8 10.8 54 30.5 73.7 33.5 33.5 86 40 126.5 16.2l73.2 73.2c4.9 4.9 11.5 7.7 18.5 7.7s13.6-2.7 18.5-7.7c4.9-4.9 7.7-11.5 7.7-18.5s-2.8-13.6-7.7-18.6zm-163.1-63.3c-16.7 0-32.5-6.5-44.3-18.3-11.8-11.8-18.3-27.5-18.3-44.3S72.2 91.1 84 79.3C95.8 67.5 111.6 61 128.3 61c8.4 0 16.5 1.6 24 4.7s14.4 7.7 20.3 13.6c11.8 11.8 18.3 27.5 18.3 44.3s-6.5 32.5-18.3 44.3c-11.8 11.8-27.6 18.3-44.3 18.3z"/></symbol></svg>